# xmcd
#
# Track frame offsets:
#	150
#	14898
#	27828
#	43532
#	60264
#	76284
#	94193
#	108785
#	125004
#
# Disc length: 1910 seconds
#
# Revision: 1
# Processed by: cddbd v1.5.2PL0 Copyright (c) Steve Scherf et al.
# Submitted via: audiograbber 1.83.01
#
DISCID=6a077409
DTITLE=Singers Solution - SS-C418
DYEAR=2012
DGENRE=Karaoke
TTITLE0=Jason Aldean - Take A Little Ride
TTITLE1=Zac Brown Band - Wind, The
TTITLE2=Tim McGraw - Truck Yeah
TTITLE3=Lee Brice - Hard To Love
TTITLE4=Jerrod Niemann - Shinnin' On Me
TTITLE5=Carrie Underwood - Blown Away
TTITLE6=Jake Owen - One That Got Away
TTITLE7=Kip Moore - Beer Money
TTITLE8=Carrie Underwood - Forever Changed
EXTD=
EXTT0=
EXTT1=
EXTT2=
EXTT3=
EXTT4=
EXTT5=
EXTT6=
EXTT7=
EXTT8=
PLAYORDER=
